<svg xmlns="http://www.w3.org/2000/svg" id="Livello_1" data-name="Livello 1" viewBox="0 0 463.91 64.82"><defs><style>      .cls-1 {        fill: #fff;      }    </style></defs><path class="cls-1" d="m122.35,5.01h9.34c2.37.02,4.15.62,5.34,1.78,1.2,1.18,1.8,2.74,1.8,4.68.02.99-.21,1.94-.71,2.84-.25.43-.62.84-1.09,1.22-.47.41-1.06.78-1.75,1.11v.07c1.31.34,2.3,1.03,2.98,2.07.63,1.07.94,2.23.94,3.49-.02,2.08-.67,3.73-1.95,4.94-1.27,1.27-2.85,1.9-4.74,1.9h-10.15V5.01Zm3.65,3.26v6.89h5.27c1.33,0,2.31-.35,2.94-1.04.64-.64.96-1.44.96-2.41s-.32-1.79-.96-2.46c-.63-.63-1.61-.95-2.94-.98h-5.27Zm0,10.15v7.24h5.62c1.36-.02,2.35-.39,2.98-1.11.63-.7.94-1.54.94-2.51s-.31-1.84-.94-2.55c-.63-.69-1.62-1.05-2.98-1.07h-5.62Z"></path><path class="cls-1" d="m142.99,5.01h9.41c2.01,0,3.64.53,4.91,1.59,1.53,1.2,2.33,2.91,2.4,5.14-.04,3.27-1.6,5.5-4.66,6.68l5.59,10.7h-4.35l-4.98-10.3h-4.66v10.3h-3.65V5.01Zm3.65,10.56h5.52c1.37-.02,2.39-.42,3.07-1.19.67-.72,1.01-1.6,1.01-2.65-.02-1.26-.42-2.17-1.21-2.73-.62-.5-1.51-.74-2.68-.74h-5.72v7.31Z"></path><path class="cls-1" d="m162.81,17.06c0-2.8.08-4.67.25-5.62.18-.95.45-1.71.81-2.3.58-1.11,1.52-2.11,2.81-2.98,1.27-.88,2.85-1.33,4.74-1.36,1.92.02,3.52.47,4.79,1.36,1.27.87,2.18,1.86,2.74,2.98.41.58.69,1.35.84,2.3.14.95.21,2.82.21,5.62s-.07,4.62-.21,5.59c-.15.97-.44,1.75-.84,2.33-.56,1.11-1.48,2.09-2.74,2.94-1.28.88-2.88,1.34-4.79,1.39-1.9-.04-3.48-.51-4.74-1.39-1.29-.85-2.23-1.83-2.81-2.94-.18-.36-.34-.71-.48-1.04-.13-.34-.24-.77-.33-1.29-.17-.97-.25-2.83-.25-5.59m3.67,0c0,2.37.09,3.97.26,4.81.15.84.47,1.52.94,2.03.39.5.89.9,1.52,1.21.62.36,1.35.55,2.22.55s1.63-.18,2.26-.55c.61-.31,1.09-.71,1.46-1.21.47-.52.8-1.19.98-2.03.16-.84.25-2.44.25-4.81s-.08-3.98-.25-4.84c-.18-.82-.5-1.48-.98-2-.36-.5-.85-.91-1.46-1.24-.64-.32-1.39-.49-2.26-.51-.86.02-1.6.19-2.22.51-.63.33-1.13.74-1.52,1.24-.47.52-.79,1.18-.94,2-.18.86-.26,2.47-.26,4.84"></path><polygon class="cls-1" points="181.51 5.01 185.36 5.01 189.15 22.13 189.22 22.13 193.89 5.01 196.54 5.01 201.2 22.13 201.27 22.13 205.07 5.01 208.92 5.01 202.9 29.11 199.84 29.11 195.25 11.74 195.18 11.74 190.57 29.11 187.53 29.11 181.51 5.01"></polygon><polygon class="cls-1" points="211.85 5.01 215.28 5.01 226.19 22.13 226.26 22.13 226.26 5.01 229.91 5.01 229.91 29.11 226.46 29.11 215.56 11.98 215.5 11.98 215.5 29.11 211.85 29.11 211.85 5.01"></polygon><path class="cls-1" d="m269.08,49.79l3.97-4.97c.31-.4.37-.71.37-1.01,0-.71-.53-1.44-1.4-1.44-.78,0-1.41.56-1.48,1.47h-1.46c.01-1.65,1.3-2.92,2.83-2.92,1.7,0,2.97,1.3,2.97,2.91,0,.67-.19,1.26-.61,1.78l-3.27,4.1h3.88v1.46h-5.79v-1.37Z"></path><polygon class="cls-1" points="275.65 48.27 279.05 41 280.67 41 277.23 48.27 279.89 48.27 279.89 45.35 281.34 45.35 281.34 48.27 282.16 48.27 282.16 49.64 281.34 49.64 281.34 51.16 279.89 51.16 279.89 49.64 275.65 49.64 275.65 48.27"></polygon><polygon class="cls-1" points="292.39 46.72 288.36 46.72 288.36 51.16 286.82 51.16 286.82 41 288.36 41 288.36 45.35 292.39 45.35 292.39 41 293.93 41 293.93 51.16 292.39 51.16 292.39 46.72"></polygon><path class="cls-1" d="m296.07,41h3.97c.86,0,1.53.2,2.07.67.57.48,1.01,1.26,1.01,2.17,0,1.31-.74,2.38-1.97,2.81l2.35,4.51h-1.83l-2.1-4.34h-1.97v4.34h-1.54v-10.16Zm1.54,4.45h2.33c1.15,0,1.73-.76,1.73-1.61,0-.53-.2-.93-.51-1.16-.29-.21-.6-.31-1.13-.31h-2.41v3.08Z"></path><path class="cls-1" d="m308.33,48.69c.77.61,1.8,1.01,2.88,1.01,1.26,0,2.01-.57,2.01-1.41,0-.71-.41-1.26-1.33-1.37-.46-.06-.81-.11-1.34-.19-1.75-.24-2.7-1.38-2.7-2.85,0-1.74,1.21-2.97,3.31-2.97,1.26,0,2.37.44,3.3,1.06l-.86,1.27c-.74-.47-1.61-.79-2.51-.79s-1.7.49-1.7,1.46c0,.57.41,1.14,1.44,1.3.27.04.66.1,1.14.16,1.9.23,2.78,1.54,2.78,2.93,0,1.87-1.38,2.95-3.57,2.95-1.5,0-2.81-.46-3.88-1.4l1.01-1.16Z"></path><path class="cls-1" d="m323.24,48.32c-.4,1.9-1.83,2.92-3.57,2.92-1.6,0-2.7-.94-3.18-1.83-.33-.6-.44-.9-.44-3.34s.11-2.74.44-3.34c.48-.88,1.58-1.83,3.18-1.83,1.93,0,3.25,1.36,3.57,3.01h-1.63c-.24-.78-.97-1.47-1.94-1.47-.73,0-1.26.34-1.57.74-.4.51-.51.8-.51,2.88s.11,2.37.51,2.88c.31.4.84.74,1.57.74.86,0,1.51-.47,1.94-1.38h1.63Z"></path><rect class="cls-1" x="324.32" y="41" width="1.54" height="10.16"></rect><polygon class="cls-1" points="328 41 334.5 41 334.5 42.45 329.55 42.45 329.55 45.35 333.77 45.35 333.77 46.72 329.55 46.72 329.55 49.7 334.5 49.7 334.5 51.16 328 51.16 328 41"></polygon><polygon class="cls-1" points="335.94 41 337.39 41 341.99 48.22 342.02 48.22 342.02 41 343.56 41 343.56 51.16 342.1 51.16 337.51 43.94 337.48 43.94 337.48 51.16 335.94 51.16 335.94 41"></polygon><polygon class="cls-1" points="347.43 42.37 344.64 42.37 344.64 41 351.75 41 351.75 42.37 348.97 42.37 348.97 51.16 347.43 51.16 347.43 42.37"></polygon><rect class="cls-1" x="352.83" y="41" width="1.54" height="10.16"></rect><polygon class="cls-1" points="356.52 41 363.01 41 363.01 42.45 358.06 42.45 358.06 45.45 362.28 45.45 362.28 46.82 358.06 46.82 358.06 51.16 356.52 51.16 356.52 41"></polygon><rect class="cls-1" x="364.18" y="41" width="1.54" height="10.16"></rect><path class="cls-1" d="m374.71,48.32c-.4,1.9-1.83,2.92-3.57,2.92-1.6,0-2.7-.94-3.18-1.83-.33-.6-.44-.9-.44-3.34s.11-2.74.44-3.34c.48-.88,1.58-1.83,3.18-1.83,1.93,0,3.25,1.36,3.57,3.01h-1.63c-.24-.78-.97-1.47-1.94-1.47-.73,0-1.26.34-1.57.74-.4.51-.51.8-.51,2.88s.11,2.37.51,2.88c.31.4.84.74,1.57.74.86,0,1.51-.47,1.94-1.38h1.63Z"></path><path class="cls-1" d="m379.35,48.69c.77.61,1.8,1.01,2.88,1.01,1.26,0,2.01-.57,2.01-1.41,0-.71-.41-1.26-1.33-1.37-.46-.06-.81-.11-1.34-.19-1.75-.24-2.7-1.38-2.7-2.85,0-1.74,1.21-2.97,3.31-2.97,1.26,0,2.37.44,3.3,1.06l-.85,1.27c-.74-.47-1.61-.79-2.51-.79s-1.7.49-1.7,1.46c0,.57.41,1.14,1.44,1.3.27.04.66.1,1.14.16,1.9.23,2.78,1.54,2.78,2.93,0,1.87-1.38,2.95-3.57,2.95-1.5,0-2.81-.46-3.88-1.4l1.01-1.16Z"></path><polygon class="cls-1" points="387.41 41 393.9 41 393.9 42.45 388.95 42.45 388.95 45.35 393.17 45.35 393.17 46.72 388.95 46.72 388.95 49.7 393.9 49.7 393.9 51.16 387.41 51.16 387.41 41"></polygon><path class="cls-1" d="m395.34,41h3.97c.86,0,1.53.2,2.07.67.57.48,1.01,1.26,1.01,2.17,0,1.31-.74,2.38-1.97,2.81l2.35,4.51h-1.83l-2.1-4.34h-1.97v4.34h-1.54v-10.16Zm1.54,4.45h2.33c1.15,0,1.73-.76,1.73-1.61,0-.53-.2-.93-.51-1.16-.28-.21-.6-.31-1.13-.31h-2.41v3.08Z"></path><polygon class="cls-1" points="402.75 41 404.37 41 406.69 48.73 406.72 48.73 409.03 41 410.65 41 407.3 51.16 406.1 51.16 402.75 41"></polygon><rect class="cls-1" x="411.74" y="41" width="1.54" height="10.16"></rect><path class="cls-1" d="m422.27,48.32c-.4,1.9-1.83,2.92-3.57,2.92-1.6,0-2.7-.94-3.18-1.83-.33-.6-.44-.9-.44-3.34s.11-2.74.44-3.34c.49-.88,1.58-1.83,3.18-1.83,1.93,0,3.25,1.36,3.57,3.01h-1.63c-.24-.78-.97-1.47-1.94-1.47-.73,0-1.25.34-1.57.74-.4.51-.51.8-.51,2.88s.11,2.37.51,2.88c.31.4.84.74,1.57.74.86,0,1.51-.47,1.94-1.38h1.63Z"></path><polygon class="cls-1" points="423.35 41 429.85 41 429.85 42.45 424.9 42.45 424.9 45.35 429.12 45.35 429.12 46.72 424.9 46.72 424.9 49.7 429.85 49.7 429.85 51.16 423.35 51.16 423.35 41"></polygon><path class="cls-1" d="m431.42,48.69c.77.61,1.8,1.01,2.88,1.01,1.26,0,2.01-.57,2.01-1.41,0-.71-.41-1.26-1.33-1.37-.46-.06-.81-.11-1.34-.19-1.75-.24-2.7-1.38-2.7-2.85,0-1.74,1.21-2.97,3.31-2.97,1.26,0,2.37.44,3.3,1.06l-.86,1.27c-.74-.47-1.61-.79-2.51-.79s-1.7.49-1.7,1.46c0,.57.41,1.14,1.44,1.3.27.04.66.1,1.14.16,1.9.23,2.78,1.54,2.78,2.93,0,1.87-1.38,2.95-3.57,2.95-1.5,0-2.81-.46-3.88-1.4l1.01-1.16Z"></path><polygon class="cls-1" points="253.3 5.01 268.69 5.01 268.69 8.46 256.95 8.46 256.95 15.34 266.97 15.34 266.97 18.58 256.95 18.58 256.95 25.66 268.69 25.66 268.69 29.11 253.3 29.11 253.3 5.01"></polygon><polygon class="cls-1" points="272.13 5.01 275.56 5.01 286.47 22.13 286.54 22.13 286.54 5.01 290.19 5.01 290.19 29.11 286.74 29.11 275.85 11.98 275.78 11.98 275.78 29.11 272.13 29.11 272.13 5.01"></polygon><polygon class="cls-1" points="299.37 8.26 292.77 8.26 292.77 5.01 309.63 5.01 309.63 8.26 303.04 8.26 303.04 29.11 299.37 29.11 299.37 8.26"></polygon><polygon class="cls-1" points="312.21 5.01 327.6 5.01 327.6 8.46 315.87 8.46 315.87 15.34 325.88 15.34 325.88 18.58 315.87 18.58 315.87 25.66 327.6 25.66 327.6 29.11 312.21 29.11 312.21 5.01"></polygon><path class="cls-1" d="m331.04,5.01h9.41c2.01,0,3.64.53,4.91,1.59,1.53,1.2,2.33,2.91,2.4,5.14-.05,3.27-1.6,5.5-4.66,6.68l5.59,10.7h-4.35l-4.98-10.3h-4.66v10.3h-3.65V5.01Zm3.65,10.56h5.52c1.37-.02,2.39-.42,3.07-1.19.67-.72,1.01-1.6,1.01-2.65-.02-1.26-.42-2.17-1.21-2.73-.62-.5-1.51-.74-2.68-.74h-5.72v7.31Z"></path><path class="cls-1" d="m351.69,5.01h8.73c.95,0,1.86.09,2.74.26.88.23,1.77.71,2.68,1.42.76.54,1.38,1.31,1.85,2.31.5.97.74,2.12.74,3.44,0,1.79-.63,3.41-1.89,4.88-1.29,1.54-3.17,2.34-5.65,2.38h-5.55v9.41h-3.65V5.01Zm3.65,11.24h5.41c1.36-.02,2.37-.44,3.06-1.26.65-.79.98-1.68.98-2.65,0-.8-.13-1.48-.4-2.03-.27-.5-.66-.89-1.16-1.17-.75-.47-1.62-.7-2.61-.68h-5.27v7.79Z"></path><path class="cls-1" d="m371.76,5.01h9.41c2.01,0,3.64.53,4.91,1.59,1.53,1.2,2.33,2.91,2.4,5.14-.04,3.27-1.6,5.5-4.66,6.68l5.59,10.7h-4.35l-4.98-10.3h-4.66v10.3h-3.65V5.01Zm3.65,10.56h5.52c1.37-.02,2.39-.42,3.07-1.19.67-.72,1.01-1.6,1.01-2.65-.02-1.26-.42-2.17-1.21-2.73-.62-.5-1.51-.74-2.68-.74h-5.72v7.31Z"></path><rect class="cls-1" x="392.4" y="5.01" width="3.65" height="24.1"></rect><path class="cls-1" d="m408.27,25.65c3.13-.04,4.72-1.16,4.76-3.36.02-1.8-1.02-2.88-3.14-3.24-.97-.13-2.03-.28-3.19-.45-2.07-.34-3.65-1.11-4.73-2.3-1.11-1.22-1.67-2.71-1.67-4.46,0-2.1.7-3.8,2.1-5.09,1.35-1.28,3.28-1.93,5.77-1.95,3,.07,5.6.9,7.82,2.5l-2.03,3.01c-1.81-1.19-3.8-1.81-5.97-1.85-1.12,0-2.06.28-2.81.84-.78.58-1.18,1.46-1.21,2.61,0,.69.27,1.32.81,1.88.54.57,1.4.97,2.59,1.19.66.11,1.56.24,2.71.38,2.26.31,3.93,1.12,5.01,2.43,1.07,1.29,1.6,2.79,1.6,4.5-.12,4.61-2.94,6.94-8.46,7.01-3.57,0-6.64-1.1-9.21-3.31l2.4-2.74c1.92,1.58,4.2,2.38,6.84,2.4"></path><polygon class="cls-1" points="420.55 5.01 435.94 5.01 435.94 8.46 424.21 8.46 424.21 15.34 434.23 15.34 434.23 18.58 424.21 18.58 424.21 25.66 435.94 25.66 435.94 29.11 420.55 29.11 420.55 5.01"></polygon><path class="cls-1" d="m446.52,25.65c3.13-.04,4.72-1.16,4.76-3.36.02-1.8-1.03-2.88-3.14-3.24-.97-.13-2.03-.28-3.19-.45-2.07-.34-3.65-1.11-4.73-2.3-1.11-1.22-1.67-2.71-1.67-4.46,0-2.1.7-3.8,2.1-5.09,1.35-1.28,3.28-1.93,5.77-1.95,3,.07,5.6.9,7.82,2.5l-2.03,3.01c-1.81-1.19-3.8-1.81-5.97-1.85-1.12,0-2.06.28-2.81.84-.78.58-1.18,1.46-1.21,2.61,0,.69.27,1.32.81,1.88.54.57,1.4.97,2.59,1.19.66.11,1.56.24,2.71.38,2.26.31,3.93,1.12,5.01,2.43,1.07,1.29,1.6,2.79,1.6,4.5-.12,4.61-2.94,6.94-8.46,7.01-3.57,0-6.64-1.1-9.21-3.31l2.4-2.74c1.92,1.58,4.2,2.38,6.84,2.4"></path><path class="cls-1" d="m4.33,31.67c0-.46.37-.83.83-.83h7.93c-1.35-1.08-2.33-2.61-2.71-4.35l-4.79-1.72s-.02,0-.03-.01l-2.72-.98c-.11-.04-.2-.1-.29-.18l-1.4-1.32c-.11-.11-.19-.24-.23-.39L.04,18.54c-.1-.36.06-.75.39-.93l.74-.42.26-1.79L.07,12.11c-.04-.1-.06-.21-.06-.32v-4.29C0,7.44,0,7.38.02,7.33l.67-3.13c.06-.26.23-.48.48-.58s.52-.09.75.04l3.92,2.27.59-1.53c.09-.23.27-.4.5-.48.23-.08.48-.06.69.07l5.62,3.29,1.09-1.33V.83c0-.46.37-.83.82-.83h3.08c.46,0,.83.37.83.83v4.87s2.74,1.95,2.74,1.95l2.53-.56s.03,0,.04,0l2.69-.6s.02,0,.04,0l.51-.11v-1.77h-.35c-.46,0-.83-.37-.83-.83,0-.46.37-.83.83-.83h6.88c.46,0,.83.36.83.82,0,.46-.37.83-.83.83h-1.83s0,1.84,0,1.84l12.16.4c.1,0,.21.02.3.06l14.01,5.5,21.18,1.7c.05,0,.1.01.16.03l6.19,1.72c.24.07.44.24.54.47l.93,2.14,1.88,1.11c.25.15.41.42.41.71v1.94c0,.32-.18.61-.47.75l-2.71,1.28-1.32,2.2h.54c.46,0,.83.37.83.83,0,.46-.37.83-.83.83h-1.99s-.03,0-.03,0h-6.64c-.45,1.05-1.15,1.96-2.01,2.68h13.82c.46-.01.83.36.83.82,0,.46-.37.83-.83.83l-84.11.08c-.46,0-.83-.37-.83-.83m19.05-4.63s0-.03.01-.04c.26-.67.4-1.39.4-2.15,0-3.29-2.68-5.96-5.97-5.96-3.29,0-5.96,2.68-5.96,5.97,0,3.29,2.68,5.96,5.97,5.96,2.52,0,4.68-1.57,5.55-3.79m40.86,1.07h-7.71s-.03,0-.03,0l-31.79.03c-.5,1.04-1.23,1.96-2.13,2.67l43.68-.04c-.86-.72-1.56-1.63-2.01-2.67m11.85-1.07s.01-.05.02-.07c.18-.55.28-1.14.28-1.75,0-3.06-2.5-5.55-5.56-5.55-3.06,0-5.55,2.5-5.55,5.56,0,.62.1,1.21.29,1.76,0,.01,0,.03.01.04.75,2.18,2.82,3.74,5.25,3.74,2.42,0,4.49-1.57,5.24-3.74M30.25,8.02v4.31s21.02,1.08,21.02,1.08l-7.07-4.93-13.95-.46Zm-6.56.91l-11.24,2.5s-.01,0-.02,0l-2.24.5c3.48-.02,10.96-.08,13.43-.1l.06-2.9Zm-10.66,15.93c0-2.65,2.15-4.8,4.79-4.8,2.65,0,4.8,2.15,4.8,4.79,0,2.65-2.15,4.8-4.79,4.8-2.65,0-4.8-2.15-4.8-4.79m53.59.36c0-2.33,1.89-4.23,4.22-4.23,2.33,0,4.23,1.89,4.23,4.22,0,2.33-1.89,4.23-4.22,4.23-2.33,0-4.23-1.89-4.23-4.22"></path></svg>