<svg xmlns="http://www.w3.org/2000/svg" id="Livello_1" data-name="Livello 1" viewBox="0 0 232.28 114.82"><defs><style>      .cls-1, .cls-2 {        fill: #fff;      }      .cls-2 {        stroke: #fff;        stroke-linecap: round;        stroke-linejoin: round;        stroke-width: 2px;      }    </style></defs><g><path class="cls-1" d="m13.01,17.99h9.34c2.37.02,4.15.62,5.34,1.78,1.2,1.18,1.8,2.74,1.8,4.68.02.99-.21,1.94-.71,2.84-.25.43-.62.84-1.09,1.22-.47.41-1.06.78-1.75,1.11v.07c1.31.34,2.3,1.03,2.98,2.07.63,1.07.94,2.23.94,3.49-.02,2.08-.67,3.73-1.95,4.94-1.27,1.27-2.85,1.9-4.74,1.9h-10.15v-24.1Zm3.65,3.26v6.89h5.27c1.33,0,2.31-.35,2.94-1.04.64-.64.96-1.44.96-2.41s-.32-1.79-.96-2.46c-.63-.63-1.61-.95-2.94-.98h-5.27Zm0,10.15v7.24h5.62c1.36-.02,2.35-.39,2.98-1.11.63-.7.94-1.54.94-2.51s-.31-1.84-.94-2.55c-.63-.69-1.62-1.05-2.98-1.07h-5.62Z"></path><path class="cls-1" d="m33.65,17.99h9.41c2.01,0,3.64.53,4.91,1.59,1.53,1.2,2.33,2.91,2.4,5.14-.04,3.27-1.6,5.5-4.66,6.68l5.59,10.7h-4.35l-4.98-10.3h-4.66v10.3h-3.65v-24.1Zm3.65,10.56h5.52c1.37-.02,2.39-.42,3.07-1.19.67-.72,1.01-1.6,1.01-2.65-.02-1.26-.42-2.17-1.21-2.73-.62-.5-1.51-.74-2.68-.74h-5.72v7.31Z"></path><path class="cls-1" d="m53.48,30.04c0-2.8.08-4.67.25-5.62.18-.95.45-1.71.81-2.3.58-1.11,1.52-2.11,2.81-2.98,1.27-.88,2.85-1.33,4.74-1.36,1.92.02,3.52.47,4.79,1.36,1.27.87,2.18,1.86,2.74,2.98.41.58.69,1.35.84,2.3.14.95.21,2.82.21,5.62s-.07,4.62-.21,5.59c-.15.97-.44,1.75-.84,2.33-.56,1.11-1.48,2.09-2.74,2.94-1.28.88-2.88,1.34-4.79,1.39-1.9-.04-3.48-.51-4.74-1.39-1.29-.85-2.23-1.83-2.81-2.94-.18-.36-.34-.71-.48-1.04-.13-.34-.24-.77-.33-1.29-.17-.97-.25-2.83-.25-5.59m3.67,0c0,2.37.09,3.97.26,4.81.15.84.47,1.52.94,2.03.39.5.89.9,1.52,1.21.62.36,1.35.55,2.22.55s1.63-.18,2.26-.55c.61-.31,1.09-.71,1.46-1.21.47-.52.8-1.19.98-2.03.16-.84.25-2.44.25-4.81s-.08-3.98-.25-4.84c-.18-.82-.5-1.48-.98-2-.36-.5-.85-.91-1.46-1.24-.64-.32-1.39-.49-2.26-.51-.86.02-1.6.19-2.22.51-.63.33-1.13.74-1.52,1.24-.47.52-.79,1.18-.94,2-.18.86-.26,2.47-.26,4.84"></path><polygon class="cls-1" points="72.17 17.99 76.03 17.99 79.81 35.11 79.88 35.11 84.55 17.99 87.2 17.99 91.86 35.11 91.93 35.11 95.73 17.99 99.58 17.99 93.57 42.09 90.51 42.09 85.91 24.72 85.84 24.72 81.23 42.09 78.19 42.09 72.17 17.99"></polygon><polygon class="cls-1" points="102.51 17.99 105.95 17.99 116.86 35.11 116.92 35.11 116.92 17.99 120.58 17.99 120.58 42.09 117.12 42.09 106.23 24.96 106.16 24.96 106.16 42.09 102.51 42.09 102.51 17.99"></polygon></g><path class="cls-1" d="m13.69,98.55l4.72-5.91c.37-.48.44-.85.44-1.21,0-.85-.63-1.72-1.67-1.72-.93,0-1.68.66-1.77,1.75h-1.73c.02-1.97,1.55-3.48,3.36-3.48,2.02,0,3.54,1.55,3.54,3.47,0,.8-.22,1.5-.73,2.12l-3.89,4.88h4.62v1.73h-6.9v-1.63Z"></path><polygon class="cls-1" points="21.5 96.75 25.55 88.08 27.48 88.08 23.39 96.75 26.55 96.75 26.55 93.26 28.28 93.26 28.28 96.75 29.25 96.75 29.25 98.38 28.28 98.38 28.28 100.18 26.55 100.18 26.55 98.38 21.5 98.38 21.5 96.75"></polygon><polygon class="cls-1" points="41.44 94.89 36.64 94.89 36.64 100.18 34.81 100.18 34.81 88.08 36.64 88.08 36.64 93.26 41.44 93.26 41.44 88.08 43.27 88.08 43.27 100.18 41.44 100.18 41.44 94.89"></polygon><path class="cls-1" d="m45.82,88.08h4.72c1.02,0,1.82.24,2.46.8.68.58,1.21,1.5,1.21,2.58,0,1.56-.88,2.84-2.34,3.35l2.8,5.37h-2.17l-2.5-5.17h-2.35v5.17h-1.84v-12.1Zm1.84,5.3h2.77c1.37,0,2.06-.9,2.06-1.92,0-.63-.24-1.1-.61-1.38-.34-.26-.71-.37-1.34-.37h-2.87v3.67Z"></path><path class="cls-1" d="m60.42,97.24c.92.73,2.14,1.21,3.43,1.21,1.49,0,2.4-.68,2.4-1.68,0-.85-.49-1.49-1.58-1.63-.54-.07-.97-.14-1.6-.22-2.09-.29-3.21-1.65-3.21-3.4,0-2.07,1.44-3.54,3.94-3.54,1.5,0,2.82.53,3.92,1.26l-1.02,1.51c-.88-.56-1.92-.94-2.99-.94s-2.02.58-2.02,1.73c0,.68.49,1.36,1.72,1.55.32.05.78.12,1.36.19,2.26.27,3.31,1.84,3.31,3.48,0,2.23-1.65,3.52-4.25,3.52-1.78,0-3.35-.54-4.62-1.67l1.21-1.38Z"></path><path class="cls-1" d="m78.17,96.8c-.48,2.26-2.17,3.48-4.25,3.48-1.9,0-3.21-1.12-3.79-2.17-.39-.71-.53-1.07-.53-3.98s.14-3.26.53-3.98c.58-1.05,1.89-2.17,3.79-2.17,2.29,0,3.87,1.61,4.25,3.59h-1.94c-.29-.93-1.16-1.75-2.31-1.75-.87,0-1.49.41-1.87.88-.48.61-.61.95-.61,3.43s.14,2.82.61,3.43c.37.48,1,.88,1.87.88,1.02,0,1.8-.56,2.31-1.65h1.94Z"></path><rect class="cls-1" x="79.47" y="88.08" width="1.84" height="12.1"></rect><polygon class="cls-1" points="83.85 88.08 91.58 88.08 91.58 89.81 85.69 89.81 85.69 93.26 90.72 93.26 90.72 94.89 85.69 94.89 85.69 98.45 91.58 98.45 91.58 100.18 83.85 100.18 83.85 88.08"></polygon><polygon class="cls-1" points="93.3 88.08 95.03 88.08 100.51 96.68 100.54 96.68 100.54 88.08 102.37 88.08 102.37 100.18 100.64 100.18 95.17 91.58 95.14 91.58 95.14 100.18 93.3 100.18 93.3 88.08"></polygon><polygon class="cls-1" points="106.98 89.71 103.67 89.71 103.67 88.08 112.13 88.08 112.13 89.71 108.81 89.71 108.81 100.18 106.98 100.18 106.98 89.71"></polygon><rect class="cls-1" x="113.42" y="88.08" width="1.84" height="12.1"></rect><polygon class="cls-1" points="117.8 88.08 125.54 88.08 125.54 89.81 119.64 89.81 119.64 93.38 124.67 93.38 124.67 95.01 119.64 95.01 119.64 100.18 117.8 100.18 117.8 88.08"></polygon><rect class="cls-1" x="126.93" y="88.08" width="1.84" height="12.1"></rect><path class="cls-1" d="m139.47,96.8c-.48,2.26-2.18,3.48-4.25,3.48-1.9,0-3.21-1.12-3.79-2.17-.39-.71-.53-1.07-.53-3.98s.14-3.26.53-3.98c.58-1.05,1.89-2.17,3.79-2.17,2.29,0,3.87,1.61,4.25,3.59h-1.94c-.29-.93-1.16-1.75-2.31-1.75-.87,0-1.49.41-1.87.88-.48.61-.61.95-.61,3.43s.14,2.82.61,3.43c.37.48,1,.88,1.87.88,1.02,0,1.8-.56,2.31-1.65h1.94Z"></path><path class="cls-1" d="m144.99,97.24c.92.73,2.14,1.21,3.43,1.21,1.49,0,2.4-.68,2.4-1.68,0-.85-.49-1.49-1.58-1.63-.54-.07-.97-.14-1.6-.22-2.09-.29-3.21-1.65-3.21-3.4,0-2.07,1.44-3.54,3.94-3.54,1.5,0,2.82.53,3.92,1.26l-1.02,1.51c-.88-.56-1.92-.94-2.99-.94s-2.02.58-2.02,1.73c0,.68.49,1.36,1.72,1.55.32.05.78.12,1.36.19,2.26.27,3.31,1.84,3.31,3.48,0,2.23-1.65,3.52-4.25,3.52-1.78,0-3.35-.54-4.62-1.67l1.21-1.38Z"></path><polygon class="cls-1" points="154.59 88.08 162.33 88.08 162.33 89.81 156.43 89.81 156.43 93.26 161.46 93.26 161.46 94.89 156.43 94.89 156.43 98.45 162.33 98.45 162.33 100.18 154.59 100.18 154.59 88.08"></polygon><path class="cls-1" d="m164.04,88.08h4.72c1.02,0,1.82.24,2.46.8.68.58,1.21,1.5,1.21,2.58,0,1.56-.88,2.84-2.35,3.35l2.8,5.37h-2.17l-2.5-5.17h-2.35v5.17h-1.84v-12.1Zm1.84,5.3h2.77c1.37,0,2.06-.9,2.06-1.92,0-.63-.24-1.1-.61-1.38-.34-.26-.71-.37-1.34-.37h-2.87v3.67Z"></path><polygon class="cls-1" points="172.86 88.08 174.8 88.08 177.55 97.29 177.59 97.29 180.34 88.08 182.27 88.08 178.28 100.18 176.86 100.18 172.86 88.08"></polygon><rect class="cls-1" x="183.57" y="88.08" width="1.84" height="12.1"></rect><path class="cls-1" d="m196.11,96.8c-.48,2.26-2.18,3.48-4.25,3.48-1.9,0-3.21-1.12-3.79-2.17-.39-.71-.53-1.07-.53-3.98s.13-3.26.53-3.98c.58-1.05,1.89-2.17,3.79-2.17,2.29,0,3.87,1.61,4.25,3.59h-1.94c-.29-.93-1.16-1.75-2.31-1.75-.87,0-1.49.41-1.87.88-.48.61-.61.95-.61,3.43s.14,2.82.61,3.43c.37.48,1,.88,1.87.88,1.02,0,1.8-.56,2.31-1.65h1.94Z"></path><polygon class="cls-1" points="197.4 88.08 205.13 88.08 205.13 89.81 199.24 89.81 199.24 93.26 204.27 93.26 204.27 94.89 199.24 94.89 199.24 98.45 205.13 98.45 205.13 100.18 197.4 100.18 197.4 88.08"></polygon><path class="cls-1" d="m207,97.24c.92.73,2.14,1.21,3.43,1.21,1.5,0,2.4-.68,2.4-1.68,0-.85-.49-1.49-1.58-1.63-.54-.07-.97-.14-1.6-.22-2.09-.29-3.21-1.65-3.21-3.4,0-2.07,1.44-3.54,3.94-3.54,1.5,0,2.82.53,3.92,1.26l-1.02,1.51c-.88-.56-1.92-.94-2.99-.94s-2.02.58-2.02,1.73c0,.68.49,1.36,1.72,1.55.32.05.78.12,1.36.19,2.26.27,3.31,1.84,3.31,3.48,0,2.23-1.65,3.52-4.25,3.52-1.78,0-3.35-.54-4.62-1.67l1.21-1.38Z"></path><g><polygon class="cls-1" points="13.01 50.08 28.4 50.08 28.4 53.53 16.66 53.53 16.66 60.41 26.68 60.41 26.68 63.65 16.66 63.65 16.66 70.72 28.4 70.72 28.4 74.18 13.01 74.18 13.01 50.08"></polygon><polygon class="cls-1" points="31.84 50.08 35.28 50.08 46.19 67.2 46.25 67.2 46.25 50.08 49.9 50.08 49.9 74.18 46.45 74.18 35.56 57.05 35.49 57.05 35.49 74.18 31.84 74.18 31.84 50.08"></polygon><polygon class="cls-1" points="59.08 53.33 52.48 53.33 52.48 50.08 69.34 50.08 69.34 53.33 62.75 53.33 62.75 74.18 59.08 74.18 59.08 53.33"></polygon><polygon class="cls-1" points="71.92 50.08 87.31 50.08 87.31 53.53 75.58 53.53 75.58 60.41 85.59 60.41 85.59 63.65 75.58 63.65 75.58 70.72 87.31 70.72 87.31 74.18 71.92 74.18 71.92 50.08"></polygon><path class="cls-1" d="m90.75,50.08h9.41c2.01,0,3.64.53,4.91,1.59,1.53,1.2,2.33,2.91,2.4,5.14-.05,3.27-1.6,5.5-4.66,6.68l5.59,10.7h-4.35l-4.98-10.3h-4.66v10.3h-3.65v-24.1Zm3.65,10.56h5.52c1.37-.02,2.39-.42,3.07-1.19.67-.72,1.01-1.6,1.01-2.65-.02-1.26-.42-2.17-1.21-2.73-.62-.5-1.51-.74-2.68-.74h-5.72v7.31Z"></path><path class="cls-1" d="m111.4,50.08h8.73c.95,0,1.86.09,2.74.26.88.23,1.77.71,2.68,1.42.76.54,1.38,1.31,1.85,2.31.5.97.74,2.12.74,3.44,0,1.79-.63,3.41-1.89,4.88-1.29,1.54-3.17,2.34-5.65,2.38h-5.55v9.41h-3.65v-24.1Zm3.65,11.24h5.41c1.36-.02,2.37-.44,3.06-1.26.65-.79.98-1.68.98-2.65,0-.8-.13-1.48-.4-2.03-.27-.5-.66-.89-1.16-1.17-.75-.47-1.62-.7-2.61-.68h-5.27v7.79Z"></path><path class="cls-1" d="m131.47,50.08h9.41c2.01,0,3.64.53,4.91,1.59,1.53,1.2,2.33,2.91,2.4,5.14-.04,3.27-1.6,5.5-4.66,6.68l5.59,10.7h-4.35l-4.98-10.3h-4.66v10.3h-3.65v-24.1Zm3.65,10.56h5.52c1.37-.02,2.39-.42,3.07-1.19.67-.72,1.01-1.6,1.01-2.65-.02-1.26-.42-2.17-1.21-2.73-.62-.5-1.51-.74-2.68-.74h-5.72v7.31Z"></path><rect class="cls-1" x="152.11" y="50.08" width="3.65" height="24.1"></rect><path class="cls-1" d="m167.98,70.72c3.13-.04,4.72-1.16,4.76-3.36.02-1.8-1.02-2.88-3.14-3.24-.97-.13-2.03-.28-3.19-.45-2.07-.34-3.65-1.11-4.73-2.3-1.11-1.22-1.67-2.71-1.67-4.46,0-2.1.7-3.8,2.1-5.09,1.35-1.28,3.28-1.93,5.77-1.95,3,.07,5.6.9,7.82,2.5l-2.03,3.01c-1.81-1.19-3.8-1.81-5.97-1.85-1.12,0-2.06.28-2.81.84-.78.58-1.18,1.46-1.21,2.61,0,.69.27,1.32.81,1.88.54.57,1.4.97,2.59,1.19.66.11,1.56.24,2.71.38,2.26.31,3.93,1.12,5.01,2.43,1.07,1.29,1.6,2.79,1.6,4.5-.12,4.61-2.94,6.94-8.46,7.01-3.57,0-6.64-1.1-9.21-3.31l2.4-2.74c1.92,1.58,4.2,2.38,6.84,2.4"></path><polygon class="cls-1" points="180.27 50.08 195.66 50.08 195.66 53.53 183.92 53.53 183.92 60.41 193.94 60.41 193.94 63.65 183.92 63.65 183.92 70.72 195.66 70.72 195.66 74.18 180.27 74.18 180.27 50.08"></polygon><path class="cls-1" d="m206.24,70.72c3.13-.04,4.72-1.16,4.76-3.36.02-1.8-1.03-2.88-3.14-3.24-.97-.13-2.03-.28-3.19-.45-2.07-.34-3.65-1.11-4.73-2.3-1.11-1.22-1.67-2.71-1.67-4.46,0-2.1.7-3.8,2.1-5.09,1.35-1.28,3.28-1.93,5.77-1.95,3,.07,5.6.9,7.82,2.5l-2.03,3.01c-1.81-1.19-3.8-1.81-5.97-1.85-1.12,0-2.06.28-2.81.84-.78.58-1.18,1.46-1.21,2.61,0,.69.27,1.32.81,1.88.54.57,1.4.97,2.59,1.19.66.11,1.56.24,2.71.38,2.26.31,3.93,1.12,5.01,2.43,1.07,1.29,1.6,2.79,1.6,4.5-.12,4.61-2.94,6.94-8.46,7.01-3.57,0-6.64-1.1-9.21-3.31l2.4-2.74c1.92,1.58,4.2,2.38,6.84,2.4"></path></g><path class="cls-1" d="m134.47,42.52c0-.35.29-.64.64-.64h6.14c-1.05-.84-1.81-2.02-2.1-3.37l-3.71-1.33s-.02,0-.02,0l-2.1-.76c-.08-.03-.16-.08-.22-.14l-1.09-1.02c-.09-.08-.15-.19-.18-.3l-.69-2.59c-.07-.28.05-.58.3-.72l.57-.33.2-1.39-1.05-2.54c-.03-.08-.05-.16-.05-.25v-3.32s0-.09.01-.14l.52-2.42c.04-.2.18-.37.37-.45s.4-.07.58.03l3.04,1.76.46-1.19c.07-.18.21-.31.39-.37.18-.06.37-.04.54.05l4.35,2.55.84-1.03v-3.95c0-.35.28-.64.64-.64h2.38c.36,0,.64.29.64.64v3.77s2.12,1.51,2.12,1.51l1.96-.44s.02,0,.03,0l2.08-.46s.02,0,.03,0l.39-.09v-1.37h-.27c-.35,0-.64-.29-.64-.64,0-.36.29-.64.64-.64h5.33c.36,0,.64.28.64.64,0,.35-.29.64-.64.64h-1.42s0,1.43,0,1.43l9.42.31c.08,0,.16.02.24.05l10.85,4.26,16.41,1.31s.08.01.12.02l4.8,1.33c.19.05.34.19.42.36l.72,1.66,1.46.86c.2.12.32.33.32.55v1.5c0,.25-.14.48-.37.58l-2.1.99-1.02,1.7h.42c.35,0,.64.29.64.64,0,.35-.29.64-.64.64h-1.54s-.02,0-.02,0h-5.14c-.35.81-.89,1.52-1.56,2.07h10.7c.36-.01.64.28.64.63,0,.35-.29.64-.64.64l-65.15.06c-.35,0-.64-.29-.64-.64m14.76-3.59s0-.02.01-.03c.2-.52.31-1.08.31-1.66,0-2.55-2.08-4.62-4.63-4.62-2.55,0-4.62,2.08-4.62,4.63,0,2.55,2.08,4.62,4.63,4.62,1.95,0,3.62-1.22,4.3-2.93m31.65.83h-5.97s-.02,0-.02,0l-24.62.02c-.39.81-.96,1.52-1.65,2.07l33.83-.03c-.67-.55-1.21-1.26-1.56-2.07m9.18-.83s.01-.04.02-.05c.14-.43.22-.88.22-1.36,0-2.37-1.93-4.3-4.3-4.3-2.37,0-4.3,1.93-4.3,4.3,0,.48.08.94.22,1.37,0,.01,0,.02,0,.03.58,1.69,2.19,2.9,4.07,2.9,1.88,0,3.48-1.21,4.06-2.9m-35.51-14.73v3.34s16.28.84,16.28.84l-5.48-3.82-10.8-.35Zm-5.08.71l-8.7,1.93s0,0-.01,0l-1.73.38c2.69-.02,8.49-.06,10.4-.08l.05-2.25Zm-8.26,12.34c0-2.05,1.66-3.72,3.71-3.72,2.05,0,3.72,1.66,3.72,3.71,0,2.05-1.66,3.72-3.71,3.72-2.05,0-3.72-1.66-3.72-3.71m41.51.28c0-1.81,1.47-3.28,3.27-3.28,1.81,0,3.28,1.47,3.28,3.27,0,1.81-1.47,3.28-3.27,3.28-1.81,0-3.28-1.47-3.28-3.27"></path><line class="cls-2" x1="13.01" y1="80.94" x2="214.67" y2="80.94"></line></svg>